<?xml version="1.0" encoding="utf-8"?>
<!-- Generator: Adobe Illustrator 20.0.0, SVG Export Plug-In . SVG Version: 6.00 Build 0)  -->
<svg version="1.1" id="Layer_1" xmlns="http://www.w3.org/2000/svg" xmlns:xlink="http://www.w3.org/1999/xlink" x="0px" y="0px"
	 viewBox="0 0 206.5 206.5" style="enable-background:new 0 0 206.5 206.5;" xml:space="preserve">
<style type="text/css">
	.st0{fill:#FFFFFF;}
</style>
<rect width="206.5" height="206.5"/>
<g id="blahblah_3_">
	<g>
		<path class="st0" d="M40.6,133.3c-3-7.6-5.9-15.1-8.8-22.7c-4.1,0.7-8.1,0.3-12.2,0.4c-0.1,1.9,0,3.7,0,5.6c0,1.8,0,3.7,0,5.5
			c0,1.9,0,3.7,0,5.6c0,1.8,0,3.7,0,5.5c-0.6,0.2-8.7,0.2-9.9,0.1c-0.2-0.5-0.2-58.5-0.1-59.9c0.2,0,0.4-0.1,0.6-0.1
			c5.8,0,11.5,0,17.3,0c3.4,0,6.8,0.4,10.1,1.5c2.6,0.9,5,2.2,6.9,4.2c2,2.1,3.1,4.7,3.8,7.5c0.6,2.8,0.7,5.6,0.4,8.5
			c-0.2,2.9-1.1,5.7-2.8,8.2c-1.1,1.6-2.5,3-4.2,4c-0.2,0.1-0.4,0.3-0.7,0.4c3.5,8.5,7,16.9,10.5,25.4c-0.2,0.1-0.2,0.2-0.3,0.2
			C47.7,133.3,44.2,133.3,40.6,133.3z M19.6,101.5c0.1,0,0.2,0.1,0.3,0.1c2.9,0,5.8,0,8.7-0.1c1.5-0.1,3-0.4,4.4-0.9
			c2.6-1,4.4-2.7,5.1-5.5c0.4-1.8,0.4-3.6,0.1-5.4c-0.5-2.6-2-4.5-4.4-5.6c-1.7-0.8-3.6-1.1-5.4-1.2c-2.7-0.1-5.5-0.1-8.2-0.1
			c-0.2,0-0.3,0-0.5,0.1C19.6,89.1,19.6,95.3,19.6,101.5z"/>
		<path class="st0" d="M113.3,133.2c0-20,0-39.9,0-59.9c3.3,0,6.6,0,9.8,0c0,0,0,0,0.1,0.1c0,0,0,0,0,0.1c0,0,0,0.1,0,0.2
			c0,0,0,0.1,0,0.1c0,0.1,0,0.2,0,0.2c0,7.9,0,15.9,0,23.8c0,0,0,0.1,0,0.1c0,0,0,0,0.1,0.1c0.1-0.1,0.2-0.2,0.3-0.4
			c3.7-4.8,7.4-9.6,11.2-14.4c2.4-3.1,4.9-6.3,7.3-9.4c0.3-0.3,0.6-0.5,1-0.5c3.7,0,7.4,0,11.2,0c0.2,0,0.4,0,0.8,0.1
			c-1,1.5-2.2,2.8-3.2,4.2c-1.1,1.4-2.2,2.7-3.3,4.1c-1.1,1.4-2.2,2.7-3.2,4.1c-1.1,1.4-2.2,2.7-3.3,4.1c-1.1,1.4-2.2,2.7-3.2,4.1
			c-1.1,1.4-2.2,2.7-3.3,4.1c-1.1,1.3-2.1,2.7-3.2,4.1c0.5,0.7,1,1.4,1.5,2c4.8,6.3,9.6,12.6,14.5,19c2.4,3.1,4.8,6.3,7.2,9.4
			c0.2,0.2,0.3,0.5,0.4,0.8c-0.4,0-0.6,0.1-0.8,0.1c-3.7,0-7.4,0-11.1,0c-0.5,0-0.7-0.2-1-0.5c-6.1-8.3-12.3-16.5-18.5-24.8
			c-0.4-0.5-0.7-1-1.3-1.4c0,0.8,0,1.6,0,2.3c0,0.8,0,1.7,0,2.5c0,0.8,0,1.6,0,2.4s0,1.6,0,2.4c0,0.8,0,1.7,0,2.5c0,0.8,0,1.6,0,2.4
			c0,0.8,0,1.7,0,2.5c0,0.8,0,1.6,0,2.4s0,1.6,0,2.4c0,0.8,0,1.7,0,2.5c0,0.8,0,1.6,0,2.4C119.8,133.2,116.6,133.2,113.3,133.2z"/>
		<path class="st0" d="M159.8,119.9c0.3,0.1,0.5,0.2,0.7,0.4c3.5,2,7.2,3.4,11.2,4c3,0.5,6,0.5,8.9-0.4c1.2-0.4,2.3-0.9,3.2-1.6
			c2.1-1.6,2.9-3.8,2.7-6.5c-0.2-2.1-1.3-3.7-3-4.9c-1.5-1-3.1-1.6-4.8-2.2c-2.7-1-5.4-1.9-8.1-3c-1.7-0.6-3.3-1.5-4.7-2.6
			c-3.2-2.2-5.1-5.3-5.8-9.1c-0.5-2.8-0.5-5.6,0.1-8.4c1-4.4,3.5-7.7,7.4-10c2.8-1.7,6-2.7,9.3-3.1c3.7-0.5,7.4-0.3,11.1,0.5
			c2.3,0.5,4.5,1.2,6.5,2.4c0.5,0.3,0.8,0.6,0.8,1.3c0,2.8,0,5.6,0,8.4c0,0.3,0,0.6,0,1c-0.4-0.2-0.7-0.3-0.9-0.4
			c-1.8-1.1-3.7-1.9-5.7-2.5c-2.3-0.7-4.6-1.1-7-1.2c-2.2-0.1-4.3,0.1-6.3,0.8c-1.5,0.5-2.8,1.3-3.8,2.5c-1.8,2.2-2.3,7.1,1.4,9.6
			c1.5,1.1,3.3,1.8,5,2.4c2.7,1,5.4,1.9,8.1,3c1.9,0.7,3.6,1.7,5.2,3c3,2.3,4.8,5.3,5.4,9c0.5,2.9,0.4,5.8-0.3,8.6
			c-1.2,4.6-4,8-8.2,10.3c-3,1.7-6.2,2.6-9.6,2.9c-4.9,0.4-9.7-0.1-14.3-1.7c-1.4-0.5-2.7-1.1-4-1.8c-0.3-0.2-0.5-0.4-0.5-0.8
			c0-3.1,0-6.3,0-9.4C159.8,120.2,159.8,120.1,159.8,119.9z"/>
		<path class="st0" d="M89.6,73.3c3.4,0,6.6,0,9.9,0c0,0.3,0,0.5,0,0.8c0,13.3,0,26.7,0,40c0,3.5-0.6,6.9-2.1,10.1
			c-2,4.1-5.2,6.8-9.4,8.4c-2.9,1.1-5.8,1.5-8.9,1.6c-2.1,0-4.2,0-6.3-0.3c-4-0.6-7.8-1.8-11.4-3.7c-0.3-0.2-0.5-0.3-0.5-0.8
			c0-3.1,0-6.2,0-9.4c0-0.1,0-0.2,0.1-0.4c0.2,0.1,0.4,0.1,0.6,0.2c1.7,0.7,3.3,1.5,5,2.2c2.5,1,5,1.7,7.7,2
			c1.9,0.2,3.8,0.3,5.7,0.1c1.4-0.1,2.7-0.4,4-1c2.7-1.2,4.3-3.3,5-6.2c0.4-1.5,0.4-3.1,0.4-4.6c0-12.7,0-25.4,0-38
			C89.6,74.1,89.6,73.7,89.6,73.3z"/>
		<path class="st0" d="M61,110.5c0-12.4,0-24.8,0-37.1c0.6-0.2,8.8-0.2,9.8-0.1c0.2,0.5,0.2,36.1,0,37.2
			C67.6,110.5,64.4,110.5,61,110.5z"/>
	</g>
</g>
</svg>
