<?xml version="1.0" encoding="utf-8"?>
<!-- Generator: Adobe Illustrator 20.0.0, SVG Export Plug-In . SVG Version: 6.00 Build 0)  -->
<svg version="1.1" id="Layer_1" xmlns="http://www.w3.org/2000/svg" xmlns:xlink="http://www.w3.org/1999/xlink" x="0px" y="0px"
	 viewBox="0 0 86 722.4" style="enable-background:new 0 0 86 722.4;" xml:space="preserve">
<style type="text/css">
	.st0{fill:#CACACA;}
</style>
<g id="blahblah_3_">
	<g>
		<path class="st0" d="M64.8,307.3c-1.7,0.2-3.4,0.4-5.1,0.5c-2.1,0.2-4.3,0.3-6.4,0.3c-16.8,0-33.7,0-50.5,0c-0.4,0-0.8,0-1.3,0
			c0-4.6,0-9.1,0-13.7c27.7,0,55.4,0,83.1,0c0,0.4,0.1,0.7,0.1,1c0,4.6,0,9.2,0,13.7c0,0.6-0.2,1-0.8,1.4
			c-9.5,5.2-18.9,10.4-28.4,15.6c-2,1.1-4.2,2-6.3,3.1c-0.3,0.2-0.6,0.3-1,0.5c0.2,0.2,0.3,0.3,0.5,0.3c4.7,2,9.2,4.6,13.6,7
			c7.1,3.9,14.2,7.9,21.3,11.8c0.8,0.4,1,0.9,1,1.7c0,4.4,0,8.8,0,13.2c0,0.4,0,0.8,0,1.1c-0.8,0.3-81.4,0.4-83,0.1
			c-0.2-0.8-0.3-11.8-0.1-13.6c0.4,0,0.8-0.1,1.2-0.1c9.2,0,18.5,0,27.7,0c7.4,0,14.9,0,22.3,0c3.9,0,7.7,0.2,11.6,0.8
			c0.2,0,0.3,0,0.7,0c-0.3-0.2-0.4-0.3-0.6-0.4c-4.7-1.6-9.1-4-13.4-6.4c-5.8-3.2-11.5-6.5-17.3-9.7c-0.8-0.4-1-0.9-1-1.8
			c0.1-2.9,0-5.9,0-8.8c0-0.7,0.2-1.1,0.8-1.4c6.9-3.8,13.7-7.7,20.6-11.5c3.3-1.8,6.7-3.5,10.2-4.7c0.2-0.1,0.3-0.1,0.5-0.2
			C64.8,307.4,64.8,307.4,64.8,307.3z"/>
		<path class="st0" d="M48.1,687c0.3,0.2,0.5,0.3,0.7,0.4c4.6,2,9,4.5,13.4,6.9c7.1,3.9,14.3,7.9,21.4,11.8c0.7,0.4,1,0.8,1,1.7
			c0,4.5,0,9,0,13.4c0,0.3,0,0.7-0.1,1.1c-27.7,0-55.4,0-83.1,0c0-4.5,0-9,0-13.6c0.3,0,0.6-0.1,0.8-0.1c17,0,34,0,51,0
			c3.8,0,7.5,0.2,11.2,0.9c0.1,0,0.2,0,0.4,0c-0.1-0.1-0.2-0.3-0.3-0.3c-4.8-1.6-9.2-4-13.6-6.5c-5.7-3.2-11.4-6.4-17-9.5
			c-0.2-0.1-0.4-0.2-0.6-0.3c-0.6-0.2-0.7-0.7-0.7-1.3c0-2.7,0.1-5.4,0-8.1c-0.1-1.6,0.5-2.3,1.8-3c6.6-3.6,13.2-7.3,19.8-11
			c3.3-1.8,6.7-3.5,10.3-4.7c0.1,0,0.2-0.1,0.4-0.2c-0.3-0.1-0.4-0.1-0.6-0.1c-4.1,0.7-8.2,0.8-12.3,0.8c-16.5,0-32.9,0-49.4,0
			c-0.4,0-0.8,0-1.1,0c-0.2-0.9-0.3-12-0.1-13.6c0.8-0.2,81.4-0.3,83-0.1c0,0.3,0.1,0.6,0.1,0.9c0,4.6,0,9.2,0,13.9
			c0,0.7-0.2,1-0.8,1.3c-10,5.5-19.9,11-29.9,16.4c-1.5,0.8-3.1,1.5-4.6,2.2C48.9,686.6,48.5,686.8,48.1,687z"/>
		<path class="st0" d="M1.4,43.2c10.5-4.1,21-8.2,31.4-12.3c-0.9-5.6-0.4-11.2-0.6-16.9c-2.6-0.1-5.2,0-7.7-0.1c-2.5,0-5.1,0-7.6,0
			c-2.6,0-5.2,0-7.7,0c-2.5,0-5.1,0-7.6,0C1.3,13.2,1.2,1.9,1.5,0.2c0.7-0.2,81.2-0.3,83-0.1c0,0.3,0.1,0.6,0.1,0.9c0,8,0.1,16,0,24
			c0,4.7-0.5,9.4-2.1,14c-1.2,3.7-3,6.9-5.9,9.6c-3,2.8-6.5,4.3-10.4,5.2c-3.9,0.9-7.8,0.9-11.7,0.6c-4.1-0.3-7.9-1.5-11.4-3.8
			c-2.3-1.6-4.1-3.5-5.6-5.9c-0.2-0.3-0.4-0.6-0.6-0.9c-11.8,4.9-23.5,9.7-35.3,14.6c-0.1-0.2-0.2-0.3-0.2-0.5
			C1.4,53,1.4,48.2,1.4,43.2z M45.4,14c0,0.2-0.1,0.3-0.1,0.5c0,4,0,8.1,0.2,12.1c0.1,2.1,0.5,4.1,1.2,6.1c1.3,3.6,3.8,6.1,7.6,7
			c2.5,0.6,5,0.6,7.6,0.1c3.6-0.7,6.2-2.8,7.7-6.2c1.1-2.4,1.6-4.9,1.7-7.5c0.1-3.8,0.1-7.6,0.2-11.4c0-0.2-0.1-0.5-0.1-0.7
			C62.6,14,54,14,45.4,14z"/>
		<path class="st0" d="M1.4,143.9c27.7,0,55.3,0,83.1,0c0,4.6,0,9.1,0,13.6c0,0-0.1,0.1-0.1,0.1c0,0-0.1,0.1-0.1,0.1
			c-0.1,0-0.1,0-0.2,0c0,0-0.1,0-0.1,0c-0.1,0-0.2,0-0.3,0c-11,0-22,0-33,0c0,0-0.1,0-0.1,0c0,0-0.1,0-0.2,0.1
			c0.2,0.2,0.3,0.3,0.5,0.5c6.6,5.2,13.3,10.3,19.9,15.5c4.4,3.4,8.7,6.8,13.1,10.1c0.5,0.4,0.7,0.8,0.6,1.4c0,5.2,0,10.3,0,15.5
			c0,0.3-0.1,0.6-0.1,1.1c-2.1-1.4-3.9-3-5.8-4.5c-1.9-1.5-3.8-3-5.7-4.6c-1.9-1.5-3.7-3-5.6-4.5c-1.9-1.5-3.8-3-5.7-4.6
			c-1.9-1.5-3.8-3-5.6-4.5c-1.9-1.5-3.8-3-5.7-4.6c-1.9-1.5-3.7-3-5.7-4.5c-1,0.7-1.9,1.4-2.8,2.1c-8.8,6.7-17.5,13.4-26.3,20.1
			c-4.4,3.3-8.7,6.6-13.1,10c-0.3,0.2-0.6,0.4-1.1,0.6c0-0.5-0.1-0.8-0.1-1.1c0-5.1,0-10.2,0-15.4c0-0.6,0.2-1,0.7-1.4
			c11.5-8.5,22.9-17.1,34.3-25.6c0.7-0.5,1.4-1,2-1.8c-1.1,0-2.2,0-3.2,0c-1.1,0-2.3,0-3.4,0c-1.1,0-2.2,0-3.3,0c-1.1,0-2.2,0-3.3,0
			c-1.1,0-2.3,0-3.4,0c-1.1,0-2.2,0-3.3,0c-1.1,0-2.3,0-3.4,0c-1.1,0-2.2,0-3.3,0s-2.2,0-3.3,0c-1.1,0-2.3,0-3.4,0
			c-1.1,0-2.2,0-3.4,0C1.4,153.1,1.4,148.5,1.4,143.9z"/>
		<path class="st0" d="M84.5,380.4c0,4.7,0,9.2,0,13.9c-0.4,0-0.8,0-1.3,0c-11.1,0-22.2,0-33.3,0c-6.8,0-13.7,0-20.5,0
			c-2.4,0-4.8,0.4-7.1,1.2c-4.4,1.5-7,4.6-8,9c-0.8,3.6-0.8,7.2-0.1,10.7c1.1,5.4,4.4,8.6,9.6,10c1.8,0.5,3.7,0.7,5.6,0.7
			c18,0,35.9,0.1,53.9,0.1c0.4,0,0.7,0,1,0c0.2,0.9,0.3,12,0.1,13.8c-0.4,0-0.8,0-1.2,0c-5.6,0-11.1,0-16.7,0c-12.3,0-24.6,0-36.8,0
			c-4,0-8-0.4-11.9-1.5c-4.8-1.4-8.9-3.7-12-7.6c-2.2-2.7-3.6-5.8-4.5-9.1c-0.9-3.3-1.3-6.7-1.3-10.1c0-2.9,0-5.8,0.4-8.7
			c0.8-4.9,2.3-9.5,5.5-13.4c2.4-3,5.4-5.1,8.9-6.5c3-1.2,6.1-2,9.3-2.2c2.7-0.2,5.5-0.4,8.2-0.4c17,0,33.9,0,50.9,0
			C83.7,380.4,84.1,380.4,84.5,380.4z"/>
		<path class="st0" d="M84.5,577.1c0,4.6,0,9.1,0,13.8c-0.5,0-0.9,0-1.4,0c-9.6,0-19.2,0-28.8,0c-7.8,0-15.6,0-23.4,0
			c-2.1,0-4.3,0.1-6.4,0.6c-2.1,0.5-4.1,1.2-5.9,2.5c-2.1,1.6-3.4,3.7-4.1,6.1c-1.2,4.4-1.3,8.8,0,13.2c1.3,4.3,4.2,7,8.4,8.3
			c2.7,0.8,5.6,1,8.4,1c17.2,0,34.4,0,51.6,0c0.5,0,0.9,0,1.4,0c0.3,0.8,0.3,12.4,0.1,13.8c-0.3,0-0.6,0.1-0.9,0.1
			c-18.1,0-36.2,0-54.2,0c-4.1,0-8.1-0.5-12-1.6c-8.4-2.6-13.7-8.2-16-16.6c-0.9-3.4-1.3-6.8-1.3-10.3c0-2.8,0-5.7,0.5-8.5
			c0.8-5,2.4-9.7,5.7-13.7c2.8-3.3,6.2-5.4,10.3-6.8c4.1-1.4,8.3-1.9,12.6-1.9c18.2,0,36.3,0,54.5,0
			C83.8,577.1,84.1,577.1,84.5,577.1z"/>
		<path class="st0" d="M84.5,516.7c0,16,0,31.9,0,47.9c-4.4,0-8.7,0-13.2,0c0-11.4,0-22.7,0-34c-6.8,0-13.4,0-20.1,0
			c0,10.9,0,21.8,0,32.7c-4.5,0-8.8,0-13.2,0c0,0-0.1,0-0.1-0.1c0,0-0.1-0.1-0.1-0.1c0-0.1,0-0.2,0-0.3c0-10.7,0-21.3,0-32
			c0,0,0-0.1,0-0.1c-0.7-0.2-21.8-0.3-23.1,0c0,11.3,0,22.6,0,33.9c-4.5,0-8.8,0-13.2,0c-0.2-0.8-0.3-46.7,0-47.9
			C29.1,516.7,56.8,516.7,84.5,516.7z"/>
		<path class="st0" d="M20,451.4c-0.2,0.5-0.3,0.7-0.4,1c-2.8,4.8-4.7,10-5.6,15.5c-0.7,4-0.7,8,0.4,11.9c0.5,2,1.4,3.7,2.6,5.4
			c3.3,4.3,11.6,5.4,15.4-0.6c1.3-2.1,2.3-4.3,3.1-6.6c1.4-3.9,2.8-7.9,4.3-11.8c1.4-3.6,3.5-6.9,6.4-9.5c2.9-2.6,6.3-4.1,10-4.8
			c3.1-0.5,6.3-0.6,9.4-0.1c5.7,0.9,10.4,3.6,14,8.2c2.7,3.5,4.4,7.5,5.3,11.8c1.6,7.7,1.2,15.3-1.2,22.8c-0.6,1.9-1.4,3.7-2.4,5.4
			c-0.3,0.4-0.5,0.6-1,0.6c-4.3,0-8.6,0-12.9,0c-0.1,0-0.3,0-0.6-0.1c0.1-0.3,0.2-0.6,0.3-0.9c2.3-3.8,3.9-7.9,4.7-12.3
			c0.9-4.8,1-9.6-0.5-14.3c-0.7-2.2-1.8-4.1-3.7-5.5c-3.3-2.4-9.8-2.7-13.1,2.1c-1.6,2.3-2.6,4.9-3.6,7.5c-1.4,3.7-2.6,7.4-4.1,11.1
			c-1.2,3-2.9,5.8-5.1,8.3c-3,3.3-6.7,5.3-11.1,6c-4.1,0.7-8.3,0.7-12.3-0.5c-5.6-1.5-9.9-4.7-13.1-9.5c-2.4-3.5-3.8-7.4-4.6-11.6
			c-1-5.6-0.9-11.1,0.1-16.6c0.7-3.8,1.8-7.4,3.5-10.9c1.1-2.2,1.1-2.2,3.5-2.2c3.6,0,7.2,0,10.7,0C19,451.4,19.4,451.4,20,451.4z"
			/>
		<path class="st0" d="M20,208.5c-0.2,0.4-0.3,0.7-0.5,1c-2.8,4.8-4.7,10-5.6,15.6c-0.7,4.1-0.7,8.3,0.6,12.3
			c0.5,1.6,1.2,3.1,2.2,4.5c2.3,3,5.3,4.1,9,3.8c3-0.2,5.2-1.8,6.8-4.2c1.4-2,2.3-4.3,3.1-6.6c1.4-3.7,2.7-7.5,4.1-11.2
			c0.9-2.3,2.1-4.5,3.6-6.6c3.1-4.4,7.3-7.1,12.6-8.1c3.9-0.7,7.8-0.7,11.6,0.2c6.1,1.4,10.6,4.9,13.9,10.2
			c2.4,3.9,3.7,8.3,4.3,12.8c0.7,5.2,0.5,10.3-0.7,15.4c-0.7,3.2-1.7,6.2-3.3,9c-0.4,0.7-0.9,1.1-1.8,1.1c-3.9-0.1-7.8,0-11.7,0
			c-0.4,0-0.8,0-1.4,0c0.3-0.6,0.4-0.9,0.6-1.3c1.5-2.5,2.6-5.1,3.5-7.8c1-3.2,1.5-6.4,1.6-9.7c0.1-3-0.1-5.9-1.1-8.8
			c-0.7-2.1-1.7-3.9-3.5-5.3c-3.1-2.5-9.9-3.2-13.4,1.9c-1.5,2.1-2.5,4.5-3.4,6.9c-1.4,3.8-2.7,7.5-4.1,11.3c-1,2.6-2.4,5-4.1,7.3
			c-3.2,4.1-7.4,6.6-12.5,7.5c-4,0.7-8,0.6-11.9-0.4c-6.4-1.7-11.1-5.6-14.3-11.3c-2.3-4.1-3.5-8.6-4-13.4
			c-0.6-6.8,0.2-13.4,2.4-19.9c0.7-1.9,1.5-3.8,2.5-5.6c0.3-0.5,0.5-0.8,1.2-0.8c4.4,0,8.7,0,13.1,0C19.5,208.5,19.6,208.5,20,208.5
			z"/>
		<path class="st0" d="M84.5,111.1c0,4.7,0,9.2,0,13.8c-0.4,0-0.7,0.1-1.1,0.1c-18.5,0-37,0-55.5,0c-4.9,0-9.6-0.8-14.1-3
			c-5.6-2.8-9.4-7.2-11.6-13.1c-1.5-4-2.1-8.1-2.2-12.3c0-2.9,0-5.8,0.4-8.7c0.8-5.6,2.5-10.9,5.1-15.9c0.2-0.4,0.5-0.7,1.1-0.7
			c4.3,0,8.7,0,13,0c0.1,0,0.3,0,0.6,0.1c-0.1,0.3-0.2,0.6-0.3,0.9c-1,2.3-2.1,4.6-3.1,7c-1.4,3.4-2.3,7-2.8,10.7
			c-0.3,2.6-0.4,5.3-0.1,7.9c0.2,1.9,0.6,3.8,1.4,5.6c1.7,3.8,4.6,6,8.6,7c2.1,0.5,4.2,0.6,6.4,0.6c17.6,0,35.2,0,52.7,0
			C83.5,111.1,83.9,111.1,84.5,111.1z"/>
		<path class="st0" d="M33,71.5c17.2,0,34.3,0,51.4,0c0.2,0.8,0.3,12.2,0.1,13.6c-0.8,0.2-50,0.3-51.5,0.1C33,80.6,33,76.1,33,71.5z
			"/>
	</g>
</g>
</svg>
