<?xml version="1.0" encoding="utf-8"?>
<!-- Generator: Adobe Illustrator 20.0.0, SVG Export Plug-In . SVG Version: 6.00 Build 0)  -->
<svg version="1.1" id="Layer_1" xmlns="http://www.w3.org/2000/svg" xmlns:xlink="http://www.w3.org/1999/xlink" x="0px" y="0px"
	 viewBox="0 0 431.2 3622.1" style="enable-background:new 0 0 431.2 3622.1;" xml:space="preserve">
<style type="text/css">
	.st0{fill:#EAEAEA;}
</style>
<g id="blahblah_3_">
	<g>
		<path class="st0" d="M324.8,1540.8c-8.5,0.9-17,2-25.6,2.6c-10.7,0.8-21.5,1.5-32.2,1.6c-84.4,0.1-168.8,0.1-253.1,0.1
			c-2.1,0-4.2,0-6.6,0c0-23.1,0-45.7,0-68.5c138.9,0,277.6,0,416.6,0c0.1,1.8,0.3,3.4,0.3,5c0,23,0,46,0.1,68.9
			c0,3.2-0.9,5.2-3.9,6.8c-47.5,26.1-94.9,52.3-142.4,78.3c-10.2,5.6-20.9,10.3-31.4,15.4c-1.6,0.8-3.1,1.6-5.2,2.6
			c1.1,0.8,1.7,1.4,2.4,1.7c23.6,10.2,45.9,22.8,68.4,35.2c35.6,19.7,71.3,39.4,107,59c3.8,2.1,5.2,4.4,5.2,8.8
			c-0.2,22.1-0.1,44.2-0.1,66.2c0,1.9,0,3.9,0,5.7c-4.2,1.3-408.4,1.8-416.4,0.6c-1.1-3.8-1.5-59.3-0.4-68.1c1.9-0.1,4-0.3,6.1-0.3
			c46.3,0,92.6,0,139,0c37.3,0,74.7-0.1,112,0c19.4,0,38.7,1.2,57.9,4.2c0.8,0.1,1.6,0,3.6,0c-1.6-1-2.3-1.6-3-1.9
			c-23.8-8-45.6-20.1-67.4-32.3c-29-16.2-57.9-32.5-87-48.5c-3.9-2.1-5.1-4.5-5-8.8c0.3-14.7,0.2-29.4,0-44.2
			c-0.1-3.6,1.2-5.4,4.2-7.1c34.5-19.1,68.9-38.5,103.4-57.6c16.5-9.2,33.4-17.4,51.3-23.5c0.8-0.3,1.5-0.7,2.3-1.1
			C324.9,1541.4,324.9,1541.1,324.8,1540.8z"/>
		<path class="st0" d="M240.9,3444.8c1.7,1,2.6,1.5,3.5,1.9c23.2,10.1,45.3,22.5,67.4,34.8c35.8,19.8,71.6,39.6,107.5,59.2
			c3.7,2,5,4.2,4.9,8.4c-0.2,22.4-0.1,44.9-0.1,67.3c0,1.8-0.2,3.5-0.3,5.6c-139,0-277.6,0-416.6,0c0-22.7,0-45.2,0-68.1
			c1.4-0.1,2.8-0.4,4.2-0.4c85.3,0,170.5-0.1,255.8,0.1c18.8,0,37.7,0.9,56.3,4.4c0.5,0.1,1-0.1,2.1-0.2c-0.8-0.7-1.1-1.3-1.6-1.5
			c-24.1-8.1-46.3-20.3-68.4-32.6c-28.5-15.9-57-31.9-85.5-47.8c-0.9-0.5-1.8-1.2-2.8-1.5c-3-1.1-3.6-3.4-3.6-6.4
			c0.1-13.5,0.7-27-0.2-40.4c-0.5-7.9,2.5-11.6,9.1-15.2c33.2-18.1,66.1-36.8,99.2-55.2c16.6-9.2,33.8-17.5,51.8-23.6
			c0.5-0.2,0.9-0.5,2.1-1.2c-1.4-0.3-2.2-0.6-2.9-0.5c-20.4,3.4-41,4.2-61.7,4.3c-82.6,0-165.2,0-247.7,0c-1.9,0-3.9,0-5.7,0
			c-1.2-4.3-1.6-60.4-0.6-68c3.9-1,407.9-1.4,416.4-0.3c0.1,1.4,0.4,3,0.4,4.5c0,23.2,0,46.3,0.1,69.5c0,3.4-1.2,5.1-4.1,6.7
			c-50,27.4-100,54.9-150.1,82.3c-7.5,4.1-15.5,7.4-23.3,11.1C245.1,3442.8,243.4,3443.6,240.9,3444.8z"/>
		<path class="st0" d="M7,216.7c52.8-20.6,105.2-41,157.7-61.5c-4.6-28.3-1.9-56.3-3-84.8c-13-0.7-25.9-0.2-38.7-0.3
			c-12.7-0.1-25.5,0-38.2,0c-12.9,0-25.8,0-38.8,0c-12.7,0-25.4,0-38,0c-1.2-4.2-1.6-60.8-0.6-69C11,0,414.3-0.5,423.7,0.7
			c0.1,1.4,0.4,2.9,0.4,4.5c0,40,0.3,80.1-0.1,120.1c-0.2,23.7-2.8,47.3-10.3,70c-6.1,18.3-15.3,34.8-29.5,48.1
			c-14.8,13.8-32.7,21.7-52.3,26.1c-19.5,4.4-39.2,4.5-58.9,2.9c-20.4-1.7-39.8-7.4-56.9-19.2c-11.4-7.8-20.7-17.7-28.1-29.4
			c-0.9-1.5-1.9-3-3-4.7c-59.1,24.4-117.8,48.7-176.8,73.1c-0.6-1.1-1.2-1.7-1.2-2.3C7,265.7,7,241.5,7,216.7z M227.5,70.4
			c-0.2,0.9-0.5,1.6-0.5,2.3c0.2,20.3,0.2,40.5,0.9,60.8c0.4,10.4,2.6,20.6,6.2,30.4c6.7,18.3,19,30.6,38.2,35.2
			c12.5,3,25.2,3,37.9,0.4c18.3-3.7,31.1-14,38.7-30.9c5.4-12,7.8-24.7,8.3-37.6c0.7-19,0.6-38,0.8-57c0-1.2-0.3-2.4-0.5-3.6
			C314,70.4,270.8,70.4,227.5,70.4z"/>
		<path class="st0" d="M7.2,721.6c138.8,0,277.5,0,416.6,0c0,22.9,0,45.6,0,68.2c-0.2,0.2-0.3,0.3-0.4,0.4c-0.1,0.1-0.3,0.3-0.4,0.3
			c-0.3,0.1-0.7,0.1-1.1,0.2c-0.2,0-0.4,0-0.5,0c-0.5,0-1.1,0-1.6,0c-55.1,0-110.2,0-165.3,0c-0.2,0-0.4,0.1-0.5,0.1
			c-0.1,0.1-0.3,0.2-0.8,0.6c0.9,0.8,1.6,1.7,2.5,2.4c33.3,25.9,66.6,51.8,99.9,77.6c21.8,16.9,43.6,33.9,65.5,50.8
			c2.4,1.9,3.3,3.8,3.3,6.8c-0.1,25.8,0,51.7-0.1,77.5c0,1.5-0.3,3.1-0.5,5.7c-10.8-7.2-19.6-15.2-29-22.5
			c-9.6-7.5-19.1-15.2-28.6-22.8c-9.4-7.5-18.8-15-28.2-22.5c-9.5-7.6-19.1-15.2-28.6-22.8c-9.4-7.5-18.8-15-28.2-22.5
			c-9.5-7.6-19-15.3-28.6-22.9c-9.4-7.5-18.8-14.9-28.4-22.5c-4.8,3.6-9.4,7.1-14,10.5c-43.9,33.5-87.8,67.1-131.8,100.6
			c-21.8,16.7-43.6,33.3-65.5,49.9c-1.4,1.1-3.2,1.8-5.4,3c-0.2-2.5-0.4-4.1-0.4-5.6c0-25.7,0-51.3-0.1-77c0-3.2,1.1-5.2,3.6-7.1
			c57.4-42.7,114.8-85.5,172.2-128.3c3.4-2.6,6.8-5.2,10.1-8.8c-5.4-0.1-10.9-0.1-16.3-0.2c-5.7,0-11.5,0-17.2,0
			c-5.6,0-11.1,0-16.7,0s-11.1,0-16.7,0c-5.7,0-11.5,0-17.2,0c-5.6,0-11.1,0-16.7,0c-5.7,0-11.5,0-17.2,0c-5.6,0-11.1,0-16.7,0
			s-11.1,0-16.7,0c-5.7,0-11.5,0-17.2,0c-5.5,0-11,0-16.8,0C7.2,767.4,7.2,744.7,7.2,721.6z"/>
		<path class="st0" d="M423.8,1907.2c0,23.3,0,46,0,69.5c-2.2,0.1-4.3,0.2-6.3,0.2c-55.7,0-111.3,0-167,0c-34.3,0-68.6,0-102.9,0.1
			c-12.1,0-24,1.8-35.4,5.8c-21.9,7.6-35.2,23-40.3,45.3c-4.1,17.8-4.1,35.9-0.5,53.9c5.4,26.9,21.8,43.3,48.1,50
			c9.2,2.4,18.6,3.5,28.2,3.5c90.1,0.1,180.2,0.3,270.4,0.4c1.8,0,3.5,0,5.2,0c1.1,4.4,1.5,60.2,0.5,69.3c-1.9,0.1-4,0.2-6.1,0.2
			c-27.8,0-55.7,0-83.5,0c-61.6,0-123.2,0.1-184.7-0.1c-20.1-0.1-40.1-1.8-59.6-7.5c-23.8-6.9-44.6-18.7-60.4-38.3
			c-10.9-13.5-18-28.9-22.5-45.5c-4.5-16.5-6.6-33.4-6.7-50.5c-0.1-14.5,0-29.1,2.2-43.5c3.8-24.6,11.4-47.7,27.4-67.4
			c12-14.9,27.2-25.4,44.8-32.6c14.9-6,30.4-9.9,46.4-11c13.8-0.9,27.6-1.8,41.3-1.8c85.1-0.1,170.2,0,255.3,0
			C419.6,1907.2,421.5,1907.2,423.8,1907.2z"/>
		<path class="st0" d="M423.9,2893.6c0,23.3,0,45.9,0,69.2c-2.3,0.1-4.6,0.2-6.8,0.2c-48.1,0-96.2,0-144.3,0c-39.1,0-78.3,0-117.4,0
			c-10.8,0-21.5,0.5-32.1,2.8c-10.6,2.3-20.6,6.1-29.4,12.7c-10.4,7.9-17.2,18.4-20.6,30.8c-6.1,22-6.3,44.3,0.1,66.3
			c6.3,21.6,21,34.9,42.3,41.4c13.8,4.2,27.9,4.8,42.1,4.8c86.2,0,172.3,0,258.5,0c2.3,0,4.6,0,6.8,0c1.3,4,1.7,62.2,0.4,69.2
			c-1.5,0.1-3,0.3-4.6,0.3c-90.6,0-181.3,0-271.9,0c-20.4,0-40.5-2.3-60-8.2c-42.1-12.9-68.6-40.9-80.1-83.2
			c-4.6-16.9-6.6-34.1-6.7-51.6c0-14.2,0.1-28.3,2.3-42.4c4-25.2,11.8-48.7,28.5-68.6c13.8-16.4,31.3-27.2,51.4-34
			c20.4-6.9,41.6-9.6,63.1-9.6c91,0,182,0,273,0C420.1,2893.6,421.7,2893.6,423.9,2893.6z"/>
		<path class="st0" d="M423.8,2591c0,80.1,0,159.9,0,240.1c-22,0-43.8,0-66.4,0c0-56.9,0-113.7,0-170.6c-33.9,0-67,0-100.7,0
			c0,54.8,0,109.2,0,164.1c-22.4,0-44.2,0-66,0c-0.2-0.1-0.3-0.2-0.4-0.4c-0.1-0.1-0.3-0.3-0.3-0.4c-0.1-0.5-0.2-1.1-0.2-1.6
			c-0.1-53.5-0.1-107-0.2-160.5c0-0.2-0.1-0.3-0.1-0.5c-3.6-1.2-109.2-1.5-115.9-0.2c0,56.5,0,113.2,0,170.2c-22.4,0-44.2,0-66,0
			c-1.1-3.9-1.3-234.3-0.1-240C146.1,2591,284.6,2591,423.8,2591z"/>
		<path class="st0" d="M100.2,2263.6c-1,2.3-1.4,3.8-2.2,5.1c-14.2,24.2-23.6,50.3-28.2,78c-3.3,19.9-3.6,40,1.8,59.7
			c2.6,9.8,6.9,18.7,13.1,26.9c16.3,21.5,58.1,27,77.4-2.9c6.7-10.3,11.4-21.5,15.7-33c7.3-19.7,14-39.6,21.8-59
			c7.3-18.1,17.6-34.5,32.2-47.8c14.4-13.1,31.4-20.6,50.4-23.8c15.7-2.7,31.4-2.9,47.1-0.3c28.7,4.7,52.2,18.2,70.2,41.2
			c13.7,17.6,22.1,37.7,26.7,59.4c8.2,38.6,6.1,76.7-6.1,114.2c-3.1,9.4-6.9,18.5-12.2,26.9c-1.3,2-2.6,3-5.1,3
			c-21.5-0.1-43.1-0.1-64.6-0.1c-0.7,0-1.4-0.2-2.9-0.4c0.6-1.7,1-3.2,1.7-4.4c11.6-19.1,19.3-39.7,23.3-61.6
			c4.4-24.1,5-48.2-2.5-71.9c-3.5-11-9.1-20.7-18.6-27.7c-16.6-12.2-49.2-13.6-65.7,10.4c-8,11.7-13.2,24.6-18,37.8
			c-6.8,18.5-13.2,37.2-20.5,55.5c-6,15.3-14.5,29.3-25.6,41.5c-15.1,16.5-33.8,26.4-55.7,30.3c-20.7,3.7-41.4,3.3-61.9-2.3
			c-27.9-7.6-49.6-23.8-65.6-47.6c-11.9-17.7-19.1-37.3-22.9-58.1c-5.1-27.8-4.5-55.7,0.7-83.4c3.5-18.9,9.1-37.2,17.8-54.5
			c5.5-10.9,5.5-10.9,17.7-10.9c18,0,35.9,0,53.9,0C95.3,2263.6,97.1,2263.6,100.2,2263.6z"/>
		<path class="st0" d="M100.1,1045.6c-1,2.1-1.6,3.7-2.5,5.1c-14.1,24.3-23.5,50.4-27.9,78c-3.3,20.7-3.5,41.4,2.8,61.8
			c2.5,8.1,5.9,15.8,11.2,22.5c11.4,14.8,26.8,20.4,45,19.1c14.9-1.1,25.9-8.8,34-21c6.8-10.2,11.4-21.5,15.5-33
			c6.8-18.7,13.4-37.5,20.5-56.1c4.5-11.8,10.7-22.7,18-33c15.6-22,36.7-35.5,63.1-40.5c19.4-3.7,38.9-3.6,58.2,1
			c30.4,7.2,53.4,24.7,69.6,51.2c12.1,19.8,18.6,41.5,21.6,64.3c3.4,25.9,2.3,51.6-3.3,77c-3.5,15.8-8.6,31.1-16.5,45.3
			c-2,3.6-4.3,5.4-8.8,5.3c-19.6-0.3-39.1-0.1-58.7-0.1c-1.9,0-3.8,0-6.9,0c1.3-2.8,2-4.7,3-6.4c7.4-12.4,13-25.5,17.3-39.3
			c4.9-15.9,7.6-32.1,8.1-48.7c0.4-15-0.7-29.8-5.5-44.1c-3.4-10.4-8.7-19.5-17.4-26.6c-15.3-12.6-49.4-15.8-66.9,9.6
			c-7.4,10.7-12.4,22.6-16.8,34.8c-6.9,18.8-13.5,37.8-20.7,56.5c-5.1,13.1-12,25.3-20.6,36.4c-16,20.6-37,33.2-62.7,37.4
			c-20,3.3-40.1,3.1-59.8-2.2c-32.1-8.6-55.7-28-71.9-56.7c-11.7-20.8-17.8-43.3-19.9-67c-3.1-34,0.8-67.3,12.1-99.6
			c3.4-9.7,7.6-19,12.7-27.8c1.3-2.3,2.8-3.8,5.8-3.8c21.9,0.1,43.8,0.1,65.7,0.1C97.9,1045.2,98.5,1045.4,100.1,1045.6z"/>
		<path class="st0" d="M423.8,557c0,23.4,0,46.1,0,69.1c-2,0.1-3.7,0.3-5.5,0.3c-92.8,0-185.6,0.1-278.4,0
			c-24.5,0-48.3-3.9-70.5-14.8c-28.3-13.9-47.3-36.2-58.3-65.4c-7.4-19.8-10.7-40.5-10.9-61.6C0.1,470,0.4,455.5,2.5,441
			c4-27.9,12.3-54.5,25.4-79.5c1.1-2.2,2.4-3.6,5.3-3.6c21.7,0.2,43.4,0.1,65.2,0.1c0.7,0,1.4,0.2,2.9,0.4c-0.6,1.7-1,3.1-1.6,4.4
			c-5.2,11.6-10.7,23.1-15.5,34.9c-7,17.2-11.5,35-13.8,53.4c-1.7,13.2-1.8,26.5-0.7,39.7c0.8,9.6,3.1,19.1,7.1,28
			c8.5,18.9,23.2,30.1,43,35c10.6,2.6,21.3,3,32.1,3c88.1,0,176.3,0,264.4,0C418.5,557,420.8,557,423.8,557z"/>
		<path class="st0" d="M165.3,358.3c86.3,0,172.1,0,257.9,0c1.1,4.2,1.4,61.3,0.4,68.3c-3.8,1.1-250.7,1.5-258.3,0.3
			C165.3,404.4,165.3,381.7,165.3,358.3z"/>
	</g>
</g>
</svg>
